{"title":"Mile.22.2018.720p.HDCAM.X264.MFH","magnet":"magnet:?xt=urn:btih:ee791e12402537017f6cb62c8c6dfb02a0f3955b&dn=Mile.22.2018.720p.HDCAM.X264.MFH&tr=udp%3A%2F%2Ftracker.leechers-paradise.org%3A6969&tr=udp%3A%2F%2Fzer0day.ch%3A1337&tr=udp%3A%2F%2Fopen.demonii.com%3A1337&tr=udp%3A%2F%2Ftracker.coppersurfer.tk%3A6969&tr=udp%3A%2F%2Fexodus.desync.com%3A6969","uploader":"mkvfilmshub","categoryP":"video","categoryS":"movies","size":"1070567552","seeders":"24","leechers":"36","description":"************************************************************\r\n <a href=\"\nhttps://pichub.info/0021.html\" rel=\"nofollow\" target=\"_NEW\">\nhttps://pichub.info/0021.html</a>\r\n <a href=\"\nhttps://pichub.info/0022.html\" rel=\"nofollow\" target=\"_NEW\">\nhttps://pichub.info/0022.html</a>\r\n <a href=\"\nhttps://pichub.info/0023.html\" rel=\"nofollow\" target=\"_NEW\">\nhttps://pichub.info/0023.html</a>\r\n <a href=\"\nhttps://pichub.info/0024.html\" rel=\"nofollow\" target=\"_NEW\">\nhttps://pichub.info/0024.html</a>\r\n <a href=\"\nhttps://pichub.info/0025.html\" rel=\"nofollow\" target=\"_NEW\">\nhttps://pichub.info/0025.html</a>\r\n\r\n************************************************************\r\n\r\nMile.22.2018.720p.HDCAM.X264.MFH.mp4\r\nFormat                                   : MPEG-4\r\nFormat profile                           : Base Media\r\nCodec ID                                 : isom (isom/iso2/avc1/mp41)\r\nFile size                                : 1 008 MiB\r\nDuration                                 : 1 h 26 min\r\nOverall bit rate                         : 1 631 kb/s\r\n\r\nVideo\r\nID                                       : 1\r\nFormat                                   : AVC\r\nFormat/Info                              : Advanced Video Codec\r\nFormat profile                           : High@L3.1\r\nFormat settings                          : CABAC / 4 Ref Frames\r\nFormat settings, CABAC                   : Yes\r\nFormat settings, RefFrames               : 4 frames\r\nCodec ID                                 : avc1\r\nCodec ID/Info                            : Advanced Video Coding\r\nDuration                                 : 1 h 26 min\r\nBit rate                                 : 1 500 kb/s\r\nWidth                                    : 1 280 pixels\r\nHeight                                   : 536 pixels\r\nDisplay aspect ratio                     : 2.40:1\r\nFrame rate mode                          : Constant\r\nFrame rate                               : 29.970 (29970/1000) FPS\r\nColor space                              : YUV\r\nChroma subsampling                       : 4:2:0\r\nBit depth                                : 8 bits\r\nScan type                                : Progressive\r\nBits/(Pixel*Frame)                       : 0.073\r\nStream size                              : 927 MiB (92%)\r\n\r\nAudio\r\nID                                       : 2\r\nFormat                                   : AC-3\r\nFormat/Info                              : Audio Coding 3\r\nCodec ID                                 : ac-3\r\nDuration                                 : 1 h 26 min\r\nBit rate mode                            : Constant\r\nBit rate                                 : 128 kb/s\r\nChannel(s)                               : 2 channels\r\nChannel positions                        : Front: L R\r\nSampling rate                            : 48.0 kHz\r\nFrame rate                               : 31.250 FPS (1536 SPF)\r\nBit depth                                : 16 bits\r\nCompression mode                         : Lossy\r\nStream size                              : 79.1 MiB (8%)\r\nService kind                             : Complete Main\r\n\r\n**************************************************************","last_updated":"2018-08-20T12:14:50.711Z","parsed":{"xt":"urn:btih:ee791e12402537017f6cb62c8c6dfb02a0f3955b","dn":"Mile.22.2018.720p.HDCAM.X264.MFH","tr":["udp://exodus.desync.com:6969","udp://open.demonii.com:1337","udp://tracker.coppersurfer.tk:6969","udp://tracker.leechers-paradise.org:6969","udp://zer0day.ch:1337"],"infoHash":"ee791e12402537017f6cb62c8c6dfb02a0f3955b","infoHashBuffer":{"type":"Buffer","data":[238,121,30,18,64,37,55,1,127,108,182,44,140,109,251,2,160,243,149,91]},"name":"Mile.22.2018.720p.HDCAM.X264.MFH","announce":["udp://exodus.desync.com:6969","udp://open.demonii.com:1337","udp://tracker.coppersurfer.tk:6969","udp://tracker.leechers-paradise.org:6969","udp://zer0day.ch:1337"],"urlList":[]}}